<svg width="363" height="249" viewBox="0 0 363 249" fill="none" xmlns="http://www.w3.org/2000/svg">
<g filter="url(#filter0_dddddd_12_3575)">
<path d="M94.2498 2.00335C94.8674 2 95.4791 2 96.0982 2H265.949C266.556 2 267.173 1.99983 267.779 2.00318C268.2 2.00578 268.628 2.01284 269.052 2.01981C269.147 2.02138 269.242 2.02294 269.336 2.02445C270.468 2.03689 271.597 2.13581 272.713 2.32033C273.834 2.50942 274.919 2.86329 275.935 3.37025C277.965 4.40464 279.618 6.04433 280.66 8.05869C281.169 9.0623 281.522 10.1369 281.705 11.2456C281.894 12.3538 281.998 13.4743 282.019 14.598C282.026 15.1115 282.026 15.6266 282.026 16.1402C282.039 16.7469 282.039 17.355 282.039 17.9684V53.0134C282.039 53.6316 282.039 54.2367 282.026 54.845C282.026 55.3649 282.026 55.8686 282.019 56.3887C281.998 57.5123 281.894 58.6328 281.705 59.7409C281.522 60.8503 281.17 61.9256 280.66 62.9297C280.142 63.9289 279.469 64.8412 278.665 65.6328C277.867 66.4313 276.945 67.0977 275.935 67.6066C274.919 68.1149 273.834 68.4709 272.713 68.6628C271.596 68.8459 270.468 68.9449 269.336 68.9589C268.822 68.9703 268.294 68.9768 267.779 68.9768C267.173 68.9802 266.556 68.9802 265.949 68.9802H96.0982C95.4791 68.9802 94.8674 68.9802 94.2499 68.9768C93.7329 68.9768 93.22 68.9703 92.6983 68.9589C91.5647 68.9441 90.4337 68.8451 89.315 68.6628C88.1978 68.4722 87.1159 68.1161 86.1055 67.6066C85.0939 67.098 84.1712 66.4316 83.3727 65.6328C82.5668 64.8442 81.895 63.9314 81.3835 62.9297C80.8698 61.9263 80.5139 60.851 80.3282 59.7409C80.1403 58.633 80.0391 57.5123 80.0257 56.3889C80.0149 56.0332 80.0107 55.6852 80.0065 55.3345C80.0046 55.1722 80.0026 55.0094 80 54.845V16.1402C80.0026 15.9759 80.0046 15.8114 80.0066 15.6469C80.0108 15.2972 80.015 14.9473 80.0257 14.5981C80.0391 13.4746 80.1402 12.3538 80.3282 11.2458C80.5144 10.1363 80.8703 9.06151 81.3835 8.05852C81.8952 7.05364 82.5669 6.1371 83.3727 5.34415C84.1743 4.54891 85.0964 3.88294 86.1055 3.37042C87.1159 2.86221 88.198 2.50825 89.315 2.3205C90.4335 2.13676 91.5646 2.03784 92.6983 2.02462C92.8052 2.02294 92.9117 2.02119 93.018 2.01945C93.4304 2.0127 93.8388 2.00601 94.2498 2.00335Z" fill="black"/>
</g>
<path d="M94.2577 67.5151C93.7433 67.5151 93.2413 67.5086 92.7309 67.4972C91.6736 67.4836 90.6188 67.3923 89.5752 67.2242C88.602 67.0579 87.6592 66.7487 86.778 66.3066C85.9049 65.8683 85.1085 65.2935 84.4193 64.6043C83.7202 63.9232 83.1381 63.1333 82.6962 62.2659C82.2494 61.3927 81.9402 60.4569 81.7794 59.4909C81.6058 58.4529 81.5118 57.4033 81.4985 56.3512C81.4876 55.998 81.4736 54.8223 81.4736 54.8223V16.1401C81.4736 16.1401 81.4885 14.9824 81.4985 14.6421C81.5113 13.5917 81.6047 12.5438 81.7779 11.5075C81.939 10.5388 82.2485 9.60022 82.6955 8.72426C83.1358 7.85737 83.7145 7.06684 84.4094 6.38331C85.1035 5.69329 85.9025 5.11554 86.7772 4.67113C87.6564 4.23056 88.5974 3.92355 89.5686 3.76036C90.6157 3.5906 91.6742 3.49886 92.7351 3.48591L94.2586 3.46515H267.771L269.313 3.48642C270.364 3.4988 271.413 3.58982 272.451 3.75869C273.432 3.92396 274.382 4.23317 275.272 4.67615C277.024 5.57174 278.45 6.98864 279.349 8.72828C279.789 9.59824 280.094 10.5292 280.253 11.4895C280.428 12.5344 280.526 13.5905 280.546 14.6495C280.551 15.1237 280.551 15.6331 280.551 16.1401C280.565 16.7681 280.565 17.3657 280.565 17.9684V53.0134C280.565 53.6217 280.565 54.2153 280.551 54.8138C280.551 55.3584 280.551 55.8572 280.544 56.3706C280.525 57.4108 280.428 58.4481 280.256 59.4743C280.098 60.4473 279.791 61.3904 279.344 62.2707C278.899 63.1287 278.32 63.9118 277.629 64.5911C276.94 65.284 276.142 65.8621 275.267 66.3033C274.38 66.7487 273.431 67.059 272.451 67.2239C271.407 67.393 270.352 67.4842 269.295 67.497C268.79 67.5087 268.285 67.5147 267.779 67.5149L265.949 67.5183L94.2577 67.5151Z" fill="black"/>
<path d="M121.82 35.9941C121.838 34.5965 122.212 33.2261 122.908 32.0105C123.603 30.7949 124.598 29.7736 125.798 29.0416C125.036 27.9612 124.029 27.0722 122.86 26.445C121.69 25.8178 120.389 25.4697 119.06 25.4285C116.224 25.1333 113.476 27.111 112.031 27.111C110.558 27.111 108.334 25.4578 105.939 25.5067C104.389 25.5563 102.879 26.0031 101.556 26.8036C100.232 27.6041 99.1404 28.731 98.3865 30.0744C95.1212 35.6815 97.5569 43.9217 100.685 48.4539C102.25 50.6733 104.079 53.1522 106.472 53.0643C108.814 52.968 109.688 51.5832 112.515 51.5832C115.316 51.5832 116.137 53.0643 118.578 53.0084C121.091 52.968 122.675 50.7793 124.185 48.539C125.309 46.9576 126.174 45.2099 126.748 43.3606C125.288 42.7482 124.042 41.723 123.166 40.4131C122.289 39.1031 121.821 37.5662 121.82 35.9941ZM117.208 22.4477C118.578 20.8164 119.253 18.7196 119.089 16.6027C116.996 16.8207 115.062 17.813 113.674 19.3817C112.995 20.148 112.475 21.0396 112.143 22.0054C111.812 22.9712 111.676 23.9923 111.743 25.0104C112.79 25.0211 113.826 24.796 114.772 24.3521C115.719 23.9082 116.551 23.257 117.208 22.4477ZM151.423 47.446H143.431L141.512 53.0663H138.126L145.696 32.2723H149.213L156.783 53.0663H153.34L151.423 47.446ZM144.258 44.8524H150.593L147.47 35.731H147.383L144.258 44.8524ZM173.131 45.487C173.131 50.1981 170.588 53.2249 166.752 53.2249C165.78 53.2754 164.813 53.0533 163.962 52.5842C163.112 52.1151 162.412 51.4179 161.942 50.5725H161.869V58.0816H158.732V37.9059H161.769V40.4275H161.827C162.318 39.5861 163.03 38.8926 163.887 38.4206C164.744 37.9487 165.714 37.716 166.694 37.7473C170.573 37.7473 173.131 40.7889 173.131 45.4869V45.487ZM169.906 45.487C169.906 42.4177 168.306 40.3997 165.866 40.3997C163.469 40.3997 161.856 42.46 161.856 45.4869C161.856 48.5417 163.469 50.5874 165.866 50.5874C168.306 50.5874 169.906 48.5842 169.906 45.4869V45.487ZM189.955 45.487C189.955 50.1981 187.413 53.2249 183.576 53.2249C182.604 53.2753 181.637 53.0533 180.787 52.5842C179.936 52.1151 179.236 51.4179 178.766 50.5725H178.694V58.0816H175.556V37.9059H178.593V40.4275H178.651C179.142 39.5861 179.854 38.8926 180.711 38.4206C181.568 37.9487 182.538 37.716 183.518 37.7473C187.398 37.7473 189.955 40.7889 189.955 45.4869V45.487ZM186.73 45.487C186.73 42.4177 185.131 40.3997 182.691 40.3997C180.293 40.3997 178.681 42.46 178.681 45.4869C178.681 48.5417 180.293 50.5874 182.691 50.5874C185.131 50.5874 186.73 48.5842 186.73 45.4869V45.487ZM201.075 47.2727C201.307 49.3347 203.327 50.6887 206.087 50.6887C208.732 50.6887 210.635 49.3347 210.635 47.4753C210.635 45.8613 209.487 44.8949 206.77 44.2327L204.052 43.5834C200.203 42.6611 198.415 40.8754 198.415 37.9777C198.415 34.3899 201.568 31.9257 206.044 31.9257C210.475 31.9257 213.512 34.3899 213.614 37.9777H210.447C210.257 35.9027 208.527 34.65 206 34.65C203.472 34.65 201.743 35.9174 201.743 37.7619C201.743 39.2321 202.847 40.0971 205.55 40.7592L207.86 41.3219C212.161 42.3308 213.949 44.0446 213.949 47.086C213.949 50.9764 210.824 53.413 205.855 53.413C201.205 53.413 198.066 51.0335 197.863 47.2725L201.075 47.2727ZM220.72 34.3183V37.9059H223.627V40.3702H220.72V48.728C220.72 50.0264 221.302 50.6314 222.58 50.6314C222.925 50.6255 223.27 50.6014 223.612 50.5594V53.0092C223.038 53.1156 222.454 53.1638 221.87 53.1529C218.775 53.1529 217.568 52.0002 217.568 49.0599V40.3702H215.345V37.9059H217.568V34.3183H220.72ZM225.311 45.487C225.311 40.7169 228.143 37.7195 232.561 37.7195C236.993 37.7195 239.812 40.7169 239.812 45.487C239.812 50.2701 237.007 53.2544 232.56 53.2544C228.115 53.2544 225.311 50.2701 225.311 45.487ZM236.615 45.487C236.615 42.2149 235.103 40.2835 232.56 40.2835C230.018 40.2835 228.508 42.2294 228.508 45.487C228.508 48.7722 230.018 50.6887 232.56 50.6887C235.103 50.6887 236.615 48.7722 236.615 45.487ZM242.399 37.9059H245.391V40.4863H245.464C245.667 39.6804 246.143 38.9681 246.812 38.4693C247.482 37.9705 248.304 37.7156 249.141 37.7473C249.503 37.746 249.863 37.785 250.216 37.8633V40.7741C249.76 40.6358 249.283 40.5723 248.806 40.5861C248.35 40.5677 247.896 40.6474 247.474 40.8197C247.052 40.992 246.673 41.2528 246.362 41.5842C246.052 41.9155 245.817 42.3096 245.675 42.7394C245.532 43.1692 245.485 43.6245 245.537 44.0741V53.0663H242.399V37.9059ZM264.683 48.6135C264.26 51.3657 261.558 53.2544 258.101 53.2544C253.654 53.2544 250.894 50.2996 250.894 45.5589C250.894 40.8036 253.669 37.7195 257.969 37.7195C262.198 37.7195 264.857 40.6008 264.857 45.1975V46.2637H254.061V46.4517C254.011 47.0097 254.082 47.5717 254.268 48.1006C254.454 48.6295 254.751 49.1131 255.14 49.5192C255.529 49.9254 256 50.2448 256.523 50.4563C257.046 50.6678 257.609 50.7666 258.173 50.746C258.914 50.8149 259.659 50.6446 260.295 50.2604C260.931 49.8762 261.425 49.2986 261.703 48.6135H264.683ZM254.076 44.0888H261.718C261.746 43.5871 261.669 43.0851 261.493 42.6142C261.316 42.1433 261.043 41.7137 260.691 41.3524C260.339 40.9911 259.915 40.7059 259.447 40.5146C258.978 40.3233 258.475 40.2302 257.969 40.241C257.458 40.238 256.951 40.3353 256.478 40.5275C256.005 40.7196 255.576 41.0027 255.214 41.3605C254.852 41.7182 254.565 42.1435 254.37 42.6118C254.174 43.0801 254.074 43.5821 254.076 44.0888ZM143.865 16.6206C144.523 16.5738 145.183 16.6723 145.798 16.9091C146.413 17.146 146.967 17.5152 147.42 17.9901C147.874 18.4651 148.215 19.0339 148.42 19.6556C148.625 20.2773 148.689 20.9364 148.606 21.5853C148.606 24.7773 146.866 26.6122 143.865 26.6122H140.226V16.6204L143.865 16.6206ZM141.791 25.1991H143.69C144.161 25.2269 144.631 25.1505 145.067 24.9753C145.504 24.8001 145.896 24.5306 146.214 24.1864C146.532 23.8421 146.769 23.4319 146.907 22.9854C147.045 22.539 147.081 22.0676 147.013 21.6056C147.076 21.1454 147.037 20.6769 146.896 20.2337C146.756 19.7906 146.519 19.3837 146.201 19.0422C145.884 18.7007 145.494 18.4331 145.06 18.2585C144.626 18.084 144.158 18.0068 143.69 18.0325H141.791V25.1991ZM150.373 22.8387C150.325 22.3432 150.382 21.8432 150.541 21.3709C150.699 20.8986 150.956 20.4643 151.293 20.0959C151.631 19.7276 152.042 19.4332 152.501 19.2318C152.96 19.0304 153.456 18.9264 153.958 18.9264C154.46 18.9264 154.957 19.0304 155.416 19.2318C155.875 19.4332 156.286 19.7276 156.624 20.0959C156.961 20.4643 157.217 20.8986 157.376 21.3709C157.534 21.8432 157.591 22.3432 157.544 22.8387C157.593 23.3348 157.536 23.8355 157.378 24.3087C157.22 24.7819 156.964 25.2171 156.627 25.5863C156.289 25.9555 155.877 26.2505 155.418 26.4524C154.958 26.6543 154.461 26.7586 153.958 26.7586C153.456 26.7586 152.959 26.6543 152.499 26.4524C152.04 26.2505 151.628 25.9555 151.29 25.5863C150.953 25.2171 150.697 24.7819 150.539 24.3087C150.381 23.8355 150.324 23.3348 150.373 22.8387ZM156 22.8387C156 21.2042 155.26 20.2484 153.961 20.2484C152.657 20.2484 151.923 21.2042 151.923 22.8387C151.923 24.4862 152.657 25.4347 153.961 25.4347C155.26 25.4347 156 24.4797 156 22.8387ZM167.076 26.612H165.519L163.948 21.0587H163.829L162.264 26.612H160.723L158.627 19.0717H160.149L161.511 24.8253H161.623L163.186 19.0717H164.625L166.189 24.8253H166.307L167.662 19.0717H169.163L167.076 26.612ZM170.925 19.0719H172.37V20.2697H172.482C172.672 19.8394 172.993 19.4787 173.4 19.2379C173.806 18.9971 174.279 18.8881 174.751 18.9262C175.121 18.8986 175.492 18.954 175.838 19.0881C176.183 19.2222 176.494 19.4317 176.746 19.701C176.999 19.9704 177.187 20.2926 177.298 20.644C177.408 20.9953 177.437 21.3667 177.382 21.7307V26.6118H175.882V22.1044C175.882 20.8927 175.351 20.2901 174.241 20.2901C173.99 20.2785 173.739 20.3209 173.506 20.4144C173.273 20.5079 173.063 20.6503 172.891 20.8318C172.718 21.0132 172.588 21.2296 172.507 21.4659C172.427 21.7022 172.399 21.9529 172.426 22.2009V26.612H170.925V19.0719ZM179.773 16.1283H181.273V26.612H179.773V16.1283ZM183.359 22.8387C183.311 22.3431 183.368 21.8431 183.527 21.3707C183.685 20.8983 183.942 20.464 184.279 20.0955C184.617 19.7271 185.028 19.4328 185.487 19.2313C185.947 19.0299 186.443 18.9259 186.945 18.9259C187.447 18.9259 187.943 19.0299 188.402 19.2313C188.861 19.4328 189.273 19.7271 189.611 20.0955C189.948 20.464 190.204 20.8983 190.363 21.3707C190.521 21.8431 190.579 22.3431 190.531 22.8387C190.579 23.3347 190.523 23.8353 190.365 24.3084C190.207 24.7814 189.95 25.2164 189.613 25.5855C189.275 25.9545 188.863 26.2494 188.404 26.4512C187.944 26.653 187.447 26.7573 186.945 26.7573C186.442 26.7573 185.946 26.653 185.486 26.4512C185.027 26.2494 184.615 25.9545 184.277 25.5855C183.939 25.2164 183.683 24.7814 183.525 24.3084C183.367 23.8353 183.311 23.3347 183.359 22.8387ZM188.987 22.8387C188.987 21.2042 188.246 20.2484 186.947 20.2484C185.643 20.2484 184.909 21.2042 184.909 22.8387C184.909 24.4862 185.643 25.4347 186.947 25.4347C188.246 25.4347 188.987 24.4797 188.987 22.8387ZM192.11 24.4797C192.11 23.1223 193.129 22.3399 194.938 22.2287L196.997 22.1109V21.4601C196.997 20.6637 196.466 20.2141 195.441 20.2141C194.603 20.2141 194.023 20.519 193.856 21.0522H192.404C192.557 19.7569 193.785 18.9264 195.51 18.9264C197.416 18.9264 198.491 19.8674 198.491 21.4601V26.612H197.047V25.5524H196.928C196.687 25.9325 196.349 26.2423 195.948 26.4503C195.546 26.6583 195.097 26.757 194.644 26.7363C194.325 26.7692 194.003 26.7354 193.698 26.6371C193.392 26.5388 193.111 26.3782 192.873 26.1656C192.634 25.953 192.443 25.6931 192.311 25.4028C192.18 25.1124 192.111 24.7979 192.11 24.4797ZM196.997 23.8354V23.2049L195.141 23.3226C194.094 23.3921 193.619 23.7454 193.619 24.41C193.619 25.0887 194.212 25.4837 195.029 25.4837C195.268 25.5077 195.509 25.4838 195.739 25.4133C195.969 25.3428 196.182 25.2273 196.365 25.0735C196.549 24.9197 196.7 24.7308 196.808 24.5181C196.917 24.3054 196.981 24.0732 196.997 23.8354ZM200.463 22.8387C200.463 20.456 201.698 18.9468 203.619 18.9468C204.094 18.9251 204.566 19.0379 204.978 19.2722C205.391 19.5064 205.728 19.8524 205.95 20.2697H206.062V16.1281H207.563V26.6118H206.125V25.4204H206.006C205.767 25.8349 205.419 26.1765 204.998 26.4084C204.577 26.6404 204.1 26.7537 203.619 26.7361C201.685 26.7361 200.463 25.2267 200.463 22.8385V22.8387ZM202.013 22.8387C202.013 24.4378 202.773 25.4003 204.044 25.4003C205.309 25.4003 206.09 24.4241 206.09 22.8451C206.09 21.2737 205.301 20.2836 204.044 20.2836C202.781 20.2836 202.013 21.2524 202.013 22.8387ZM213.771 22.8387C213.723 22.3432 213.78 21.8432 213.938 21.3709C214.097 20.8986 214.353 20.4643 214.691 20.0959C215.028 19.7276 215.44 19.4332 215.899 19.2318C216.358 19.0304 216.854 18.9264 217.356 18.9264C217.858 18.9264 218.354 19.0304 218.813 19.2318C219.272 19.4332 219.684 19.7276 220.021 20.0959C220.359 20.4643 220.615 20.8986 220.773 21.3709C220.932 21.8432 220.989 22.3432 220.941 22.8387C220.99 23.3348 220.934 23.8355 220.776 24.3087C220.618 24.7819 220.362 25.2171 220.024 25.5863C219.686 25.9555 219.275 26.2505 218.815 26.4524C218.355 26.6543 217.858 26.7586 217.356 26.7586C216.853 26.7586 216.356 26.6543 215.897 26.4524C215.437 26.2505 215.025 25.9555 214.688 25.5863C214.35 25.2171 214.094 24.7819 213.936 24.3087C213.778 23.8355 213.722 23.3348 213.771 22.8387ZM219.398 22.8387C219.398 21.2042 218.658 20.2484 217.358 20.2484C216.054 20.2484 215.321 21.2042 215.321 22.8387C215.321 24.4862 216.054 25.4347 217.358 25.4347C218.658 25.4347 219.398 24.4797 219.398 22.8387ZM222.954 19.0719H224.399V20.2697H224.511C224.701 19.8394 225.022 19.4787 225.429 19.2379C225.835 18.9971 226.308 18.8881 226.78 18.9262C227.15 18.8986 227.521 18.954 227.867 19.0881C228.212 19.2222 228.523 19.4317 228.775 19.701C229.028 19.9704 229.216 20.2926 229.326 20.644C229.437 20.9953 229.466 21.3667 229.411 21.7307V26.6118H227.911V22.1044C227.911 20.8927 227.38 20.2901 226.27 20.2901C226.019 20.2785 225.768 20.3209 225.535 20.4144C225.302 20.5079 225.092 20.6503 224.92 20.8318C224.747 21.0132 224.617 21.2296 224.536 21.4659C224.456 21.7022 224.428 21.9529 224.455 22.2009V26.612H222.955L222.954 19.0719ZM237.889 17.1946V19.1062H239.537V20.3596H237.889V24.2367C237.889 25.0266 238.218 25.3725 238.964 25.3725C239.156 25.3719 239.347 25.3604 239.536 25.3381V26.5777C239.267 26.6255 238.994 26.6509 238.72 26.6537C237.052 26.6537 236.387 26.0715 236.387 24.6178V20.3596H235.18V19.1061H236.387V17.1948L237.889 17.1946ZM241.586 16.1283H243.073V20.2836H243.192C243.391 19.8493 243.721 19.4866 244.136 19.2449C244.551 19.0031 245.031 18.8942 245.51 18.9327C245.878 18.9129 246.246 18.9738 246.588 19.1112C246.929 19.2486 247.236 19.459 247.486 19.7275C247.736 19.996 247.923 20.316 248.034 20.6645C248.145 21.0131 248.178 21.3816 248.128 21.7439V26.612H246.626V22.1109C246.626 20.9065 246.061 20.2966 245.001 20.2966C244.743 20.2757 244.483 20.3108 244.241 20.3997C243.998 20.4885 243.778 20.6289 243.595 20.811C243.413 20.993 243.273 21.2124 243.185 21.4538C243.097 21.6951 243.064 21.9526 243.086 22.2082V26.612H241.586V16.1283ZM256.877 24.576C256.673 25.2651 256.232 25.8613 255.629 26.2601C255.027 26.6589 254.303 26.835 253.583 26.7575C253.082 26.7706 252.584 26.6755 252.124 26.4787C251.664 26.2819 251.253 25.9882 250.918 25.6179C250.584 25.2476 250.335 24.8096 250.189 24.3343C250.043 23.8591 250.002 23.3579 250.071 22.8656C250.004 22.3718 250.045 21.8696 250.191 21.3929C250.337 20.9162 250.585 20.4761 250.917 20.1026C251.249 19.729 251.659 19.4307 252.118 19.2277C252.576 19.0248 253.074 18.9219 253.576 18.9262C255.692 18.9262 256.968 20.3596 256.968 22.7273V23.2466H251.599V23.33C251.576 23.6067 251.611 23.8852 251.702 24.1477C251.794 24.4102 251.939 24.6508 252.13 24.8542C252.321 25.0576 252.552 25.2192 252.809 25.3287C253.066 25.4382 253.344 25.4932 253.624 25.4901C253.983 25.5328 254.347 25.4688 254.669 25.306C254.991 25.1432 255.257 24.8891 255.433 24.576H256.877ZM251.599 22.1461H255.439C255.458 21.8931 255.424 21.6389 255.338 21.3999C255.251 21.1609 255.116 20.9424 254.94 20.7585C254.764 20.5745 254.55 20.4292 254.314 20.3317C254.078 20.2343 253.824 20.187 253.568 20.1928C253.308 20.1896 253.051 20.2379 252.811 20.3349C252.57 20.4319 252.352 20.5757 252.168 20.7577C251.985 20.9398 251.84 21.1564 251.742 21.3949C251.645 21.6333 251.596 21.8887 251.599 22.1461Z" fill="white"/>
<defs>
<filter id="filter0_dddddd_12_3575" x="0" y="0.703704" width="362.039" height="248.276" filterUnits="userSpaceOnUse" color-interpolation-filters="sRGB">
<feFlood flood-opacity="0" result="BackgroundImageFix"/>
<feColorMatrix in="SourceAlpha" type="matrix" values="0 0 0 0 0 0 0 0 0 0 0 0 0 0 0 0 0 0 127 0" result="hardAlpha"/>
<feOffset dy="1.85185"/>
<feGaussianBlur stdDeviation="1.57407"/>
<feColorMatrix type="matrix" values="0 0 0 0 0.219608 0 0 0 0 0.219608 0 0 0 0 0.219608 0 0 0 0.0240741 0"/>
<feBlend mode="normal" in2="BackgroundImageFix" result="effect1_dropShadow_12_3575"/>
<feColorMatrix in="SourceAlpha" type="matrix" values="0 0 0 0 0 0 0 0 0 0 0 0 0 0 0 0 0 0 127 0" result="hardAlpha"/>
<feOffset dy="8.14815"/>
<feGaussianBlur stdDeviation="3.25926"/>
<feColorMatrix type="matrix" values="0 0 0 0 0.219608 0 0 0 0 0.219608 0 0 0 0 0.219608 0 0 0 0.0392593 0"/>
<feBlend mode="normal" in2="effect1_dropShadow_12_3575" result="effect2_dropShadow_12_3575"/>
<feColorMatrix in="SourceAlpha" type="matrix" values="0 0 0 0 0 0 0 0 0 0 0 0 0 0 0 0 0 0 127 0" result="hardAlpha"/>
<feOffset dy="20"/>
<feGaussianBlur stdDeviation="6.5"/>
<feColorMatrix type="matrix" values="0 0 0 0 0.219608 0 0 0 0 0.219608 0 0 0 0 0.219608 0 0 0 0.05 0"/>
<feBlend mode="normal" in2="effect2_dropShadow_12_3575" result="effect3_dropShadow_12_3575"/>
<feColorMatrix in="SourceAlpha" type="matrix" values="0 0 0 0 0 0 0 0 0 0 0 0 0 0 0 0 0 0 127 0" result="hardAlpha"/>
<feOffset dy="38.5185"/>
<feGaussianBlur stdDeviation="12.7407"/>
<feColorMatrix type="matrix" values="0 0 0 0 0.219608 0 0 0 0 0.219608 0 0 0 0 0.219608 0 0 0 0.0607407 0"/>
<feBlend mode="normal" in2="effect3_dropShadow_12_3575" result="effect4_dropShadow_12_3575"/>
<feColorMatrix in="SourceAlpha" type="matrix" values="0 0 0 0 0 0 0 0 0 0 0 0 0 0 0 0 0 0 127 0" result="hardAlpha"/>
<feOffset dy="64.8148"/>
<feGaussianBlur stdDeviation="23.4259"/>
<feColorMatrix type="matrix" values="0 0 0 0 0.219608 0 0 0 0 0.219608 0 0 0 0 0.219608 0 0 0 0.0759259 0"/>
<feBlend mode="normal" in2="effect4_dropShadow_12_3575" result="effect5_dropShadow_12_3575"/>
<feColorMatrix in="SourceAlpha" type="matrix" values="0 0 0 0 0 0 0 0 0 0 0 0 0 0 0 0 0 0 127 0" result="hardAlpha"/>
<feOffset dy="100"/>
<feGaussianBlur stdDeviation="40"/>
<feColorMatrix type="matrix" values="0 0 0 0 0.219608 0 0 0 0 0.219608 0 0 0 0 0.219608 0 0 0 0.1 0"/>
<feBlend mode="normal" in2="effect5_dropShadow_12_3575" result="effect6_dropShadow_12_3575"/>
<feBlend mode="normal" in="SourceGraphic" in2="effect6_dropShadow_12_3575" result="shape"/>
</filter>
</defs>
</svg>
