<svg width="363" height="249" viewBox="0 0 363 249" fill="none" xmlns="http://www.w3.org/2000/svg">
<g filter="url(#filter0_dddddd_12_3579)">
<path d="M275.517 2H88.4439C84.3283 2 80.9609 5.76764 80.9609 10.3726V60.6077C80.9609 65.2127 84.3282 68.9803 88.4439 68.9803H275.517C279.633 68.9803 283 65.2127 283 60.6078V10.3726C283 5.76764 279.633 2 275.517 2Z" fill="black"/>
<path fill-rule="evenodd" clip-rule="evenodd" d="M88.4439 2H275.517C279.633 2 283 5.76764 283 10.3726V60.6078C283 65.2127 279.633 68.9803 275.517 68.9803H88.4439C84.3282 68.9803 80.9609 65.2127 80.9609 60.6077V10.3726C80.9609 5.76764 84.3283 2 88.4439 2Z" fill="black"/>
</g>
<path d="M274.667 68H89.3338C85.3005 68 82.0005 64.3438 82.0005 59.875V11.125C82.0005 6.65624 85.3005 3 89.3338 3H274.667C278.7 3 282 6.65624 282 11.125V59.875C282 64.3438 278.701 68 274.667 68Z" fill="black"/>
<path d="M151.927 19.1528C151.927 20.5557 151.555 21.6729 150.812 22.5063C149.967 23.4973 148.866 23.9931 147.513 23.9931C146.217 23.9931 145.115 23.4908 144.209 22.4847C143.301 21.4793 142.848 20.2326 142.848 18.7452C142.848 17.2571 143.301 16.0111 144.209 15.0049C145.115 13.9997 146.217 13.4966 147.513 13.4966C148.156 13.4966 148.771 13.6373 149.356 13.9179C149.941 14.1993 150.409 14.5727 150.76 15.0403L149.971 15.924C149.377 15.1293 148.558 14.7322 147.513 14.7322C146.567 14.7322 145.75 15.1038 145.06 15.8475C144.37 16.592 144.026 17.5573 144.026 18.7452C144.026 19.9331 144.37 20.8984 145.06 21.6429C145.75 22.3866 146.567 22.7582 147.513 22.7582C148.515 22.7582 149.351 22.3846 150.021 21.6364C150.455 21.149 150.706 20.4714 150.774 19.6014H147.513V18.3946H151.864C151.906 18.657 151.926 18.9088 151.926 19.1528" fill="white"/>
<path d="M151.927 19.1529H151.777C151.776 20.5238 151.418 21.5886 150.706 22.388L150.704 22.3893L150.704 22.3907C149.886 23.3475 148.835 23.8237 147.513 23.8258C146.251 23.8237 145.195 23.3423 144.314 22.3664C143.434 21.3885 142.999 20.1947 142.997 18.7453C142.999 17.2952 143.434 16.102 144.314 15.1248C145.195 14.1482 146.251 13.6661 147.513 13.6641C148.137 13.6641 148.731 13.8003 149.297 14.0717C149.864 14.3452 150.312 14.7036 150.646 15.1485L150.76 15.0404L150.655 14.922L149.865 15.8063L149.971 15.9241L150.086 15.8169C149.464 14.9828 148.591 14.5624 147.513 14.5649C146.533 14.5635 145.67 14.9554 144.957 15.7273C144.237 16.5017 143.875 17.5215 143.876 18.7453C143.875 19.9692 144.237 20.9888 144.957 21.7633C145.67 22.5352 146.533 22.9271 147.513 22.9257C148.549 22.9277 149.432 22.5345 150.127 21.7549C150.591 21.2341 150.854 20.5128 150.923 19.6158L150.937 19.434H147.662V18.5621H151.864V18.3947L151.717 18.4241C151.758 18.678 151.777 18.9193 151.777 19.1529H152.076C152.076 18.8984 152.055 18.6368 152.011 18.3647L151.989 18.2272H147.363V19.7689H150.774V19.6015L150.625 19.5871C150.559 20.4297 150.319 21.0642 149.915 21.5182C149.272 22.235 148.483 22.5888 147.513 22.5908C146.603 22.5895 145.83 22.2388 145.165 21.5226C144.505 20.809 144.177 19.8978 144.175 18.7453C144.177 17.5927 144.505 16.6816 145.165 15.9679C145.83 15.2517 146.603 14.9011 147.513 14.8998C148.525 14.9025 149.289 15.2766 149.857 16.0321L149.962 16.172L150.866 15.1589L150.963 15.0503L150.875 14.9331C150.507 14.4426 150.017 14.0533 149.415 13.7644C148.812 13.4745 148.175 13.3292 147.513 13.3292C146.182 13.3279 145.034 13.8512 144.103 14.8867C143.168 15.9202 142.697 17.2193 142.698 18.7453C142.697 20.2706 143.168 21.5704 144.103 22.6045C145.034 23.6394 146.182 24.162 147.513 24.1607C148.898 24.162 150.048 23.6471 150.92 22.6221L150.812 22.5064L150.918 22.6248C151.693 21.7581 152.077 20.5873 152.076 19.1529H151.927H151.927ZM158.825 14.956H154.736V18.1416H158.423V19.3489H154.736V22.5345H158.825V23.7688H153.583V13.7218H158.825V14.956Z" fill="white"/>
<path d="M158.825 14.9558V14.7884H154.586V18.3089H158.274V19.1808L154.586 19.1812V22.7017H158.675V23.6011H153.732V13.889H158.675V14.9558H158.825V14.7884V14.9558H158.974V13.5541H153.433V23.936H158.974V22.3668H154.885V19.5161H158.573V17.974H154.885V15.1232H158.974V14.9558H158.825ZM163.691 23.7686H162.536V14.9557H160.028V13.7214H166.199V14.9557H163.691V23.7685" fill="white"/>
<path d="M163.691 23.7686V23.6011H162.686V14.7884H160.178V13.889H166.049V14.7884H163.541V23.7686H163.691V23.6011V23.7686H163.84V15.1232H166.348V13.5541H159.878V15.1232H162.386V23.9359H163.84V23.7685H163.691V23.7686ZM170.663 23.7686V13.7214H171.817V23.7685H170.663" fill="white"/>
<path d="M170.663 23.7686H170.813V13.889H171.667V23.6011H170.663V23.7686H170.813H170.663V23.936H171.966V13.5541H170.513V23.936H170.663V23.7686V23.7686ZM176.934 23.7686H175.78V14.9557H173.272V13.7214H179.442V14.9557H176.934V23.7685" fill="white"/>
<path d="M176.935 23.7688V23.6013H175.93V14.7885H173.422V13.8892H179.293V14.7885H176.785V23.7687H176.935V23.6013V23.7687H177.084V15.1234H179.592V13.5542H173.123V15.1233H175.63V23.9361H177.084V23.7686H176.935V23.7688ZM185.392 21.6292C186.056 22.382 186.869 22.7581 187.831 22.7581C188.793 22.7581 189.607 22.382 190.27 21.6292C190.935 20.8764 191.269 19.914 191.269 18.7452C191.269 17.5765 190.935 16.6141 190.27 15.8612C189.607 15.1083 188.793 14.7322 187.831 14.7322C186.869 14.7322 186.056 15.1083 185.392 15.8612C184.728 16.6141 184.395 17.5764 184.395 18.7452C184.395 19.914 184.728 20.8764 185.392 21.6292ZM191.124 22.4703C190.241 23.486 189.143 23.9931 187.831 23.9931C186.518 23.9931 185.421 23.486 184.54 22.4703C183.656 21.4557 183.217 20.2137 183.217 18.7452C183.217 17.2766 183.656 16.0345 184.54 15.0201C185.421 14.0041 186.518 13.4966 187.831 13.4966C189.136 13.4966 190.231 14.0068 191.118 15.0266C192.003 16.0463 192.447 17.2858 192.447 18.7452C192.447 20.2137 192.005 21.4557 191.124 22.4703Z" fill="white"/>
<path d="M185.392 21.6293L185.285 21.747C185.975 22.53 186.835 22.9277 187.831 22.9257C188.827 22.9277 189.689 22.53 190.377 21.747C191.071 20.9633 191.42 19.9495 191.418 18.7453C191.419 17.5412 191.071 16.5273 190.377 15.7435C189.689 14.9606 188.827 14.5629 187.831 14.5649C186.835 14.5629 185.975 14.9606 185.285 15.7435C184.593 16.5273 184.244 17.5412 184.245 18.7453C184.244 19.9494 184.593 20.9633 185.285 21.747L185.392 21.6293L185.498 21.5116C184.863 20.7887 184.546 19.8795 184.545 18.7453C184.546 17.6112 184.863 16.7019 185.498 15.979C186.139 15.2563 186.904 14.9018 187.831 14.8998C188.758 14.9018 189.525 15.2563 190.164 15.979C190.8 16.7019 191.117 17.6112 191.119 18.7453C191.117 19.8794 190.8 20.7887 190.164 21.5116C189.525 22.2343 188.758 22.5888 187.831 22.5907C186.904 22.5888 186.139 22.2343 185.498 21.5116L185.392 21.6293ZM191.124 22.4704L191.017 22.3541C190.159 23.3378 189.109 23.8238 187.831 23.8258C186.553 23.8237 185.503 23.3378 184.647 22.3541L184.643 22.3488L184.647 22.3541C183.791 21.3669 183.368 20.1765 183.367 18.7453C183.368 17.3141 183.791 16.1236 184.647 15.1366C185.503 14.1528 186.553 13.6662 187.831 13.6642C189.101 13.6662 190.148 14.1548 191.011 15.1437C191.87 16.1354 192.295 17.3239 192.297 18.7453C192.295 20.1765 191.871 21.3669 191.017 22.3541L191.124 22.4704L191.231 22.5867C192.139 21.5442 192.597 20.251 192.596 18.7453C192.598 17.2481 192.137 15.9576 191.225 14.9104C190.314 13.859 189.171 13.3274 187.831 13.3292C186.484 13.3274 185.339 13.8566 184.432 14.9038V14.9031C183.523 15.9463 183.066 17.2396 183.067 18.7453C183.066 20.251 183.523 21.5442 184.432 22.5874L184.436 22.5922L184.432 22.5867C185.339 23.634 186.484 24.162 187.831 24.1607C189.178 24.162 190.323 23.634 191.231 22.5867L191.124 22.4704ZM194.066 23.7689V13.7217H195.47L199.834 21.5376H199.884L199.834 19.6014V13.7217H200.989V23.7687H199.785L195.219 15.5741H195.169L195.219 17.5109V23.7687H194.066" fill="white"/>
<path d="M194.066 23.7686H194.215V13.889H195.387L199.751 21.7049H200.037L199.984 19.5987V13.889H200.839V23.6011H199.867L195.302 15.4064H195.015L195.069 17.5135V23.6011H194.066V23.7686H194.215H194.066V23.936H195.368V17.5081L195.319 15.5694L195.169 15.5739V15.7413H195.219V15.5739L195.092 15.6629L199.701 23.936H201.138V13.5541H199.684V19.6032L199.734 21.5419L199.884 21.5374V21.37H199.834V21.5374L199.961 21.4486L195.553 13.5541H193.916V23.936H194.066V23.7686L194.066 23.7686ZM241 52.2352H243.792V31.3019H241L241 52.2352ZM266.153 38.8426L262.952 47.9182H262.856L259.533 38.8425H256.525L261.507 51.5274L258.667 58.5833H261.581L269.258 38.8425L266.153 38.8426ZM250.316 49.8576C249.4 49.8576 248.125 49.346 248.125 48.0798C248.125 46.464 249.714 45.8447 251.085 45.8447C252.314 45.8447 252.89 46.1409 253.637 46.5453C253.42 48.484 251.928 49.8576 250.316 49.8576ZM250.653 38.3846C248.631 38.3846 246.537 39.3813 245.671 41.5897L248.149 42.7475C248.679 41.5897 249.665 41.2122 250.701 41.2122C252.145 41.2122 253.613 42.1823 253.637 43.9059V44.1211C253.131 43.7979 252.049 43.3133 250.724 43.3133C248.053 43.3133 245.332 44.9557 245.332 48.026C245.332 50.827 247.523 52.6316 249.978 52.6316C251.856 52.6316 252.89 51.689 253.541 50.585H253.637V52.2006H256.332V44.1746C256.332 40.4588 253.854 38.3846 250.653 38.3846ZM233.394 41.3908H229.422V34.2154H233.394C235.482 34.2154 236.667 36.1494 236.667 37.803C236.667 39.4252 235.482 41.3908 233.394 41.3908ZM233.322 31.3019H226.631V52.2352H229.422V44.3042H233.322C236.417 44.3042 239.46 41.797 239.46 37.803C239.46 33.8091 236.417 31.3019 233.322 31.3019ZM196.834 49.8615C194.905 49.8615 193.289 48.0542 193.289 45.5718C193.289 43.0635 194.905 41.2287 196.834 41.2287C198.739 41.2287 200.233 43.0634 200.233 45.5718C200.233 48.0542 198.739 49.8615 196.834 49.8615H196.834ZM200.04 40.0147H199.944C199.317 39.1786 198.111 38.4232 196.593 38.4232C193.41 38.4232 190.493 41.5524 190.493 45.5718C190.493 49.5646 193.41 52.667 196.593 52.667C198.111 52.667 199.317 51.9114 199.944 51.0486H200.04V52.0736C200.04 54.7987 198.739 56.2554 196.641 56.2554C194.929 56.2554 193.868 54.8791 193.434 53.7193L190.999 54.8523C191.698 56.7407 193.555 59.0609 196.641 59.0609C199.92 59.0609 202.693 56.9022 202.693 51.642V38.8549H200.04V40.0147ZM204.621 52.2352H207.418V31.3011H204.621V52.2352ZM211.541 45.3292C211.469 42.5773 213.446 41.1749 214.868 41.1749C215.978 41.1749 216.918 41.795 217.231 42.6861L211.541 45.3292ZM220.221 42.9554C219.691 41.3633 218.075 38.4232 214.772 38.4232C211.493 38.4232 208.769 41.3097 208.769 45.5451C208.769 49.5378 211.469 52.667 215.085 52.667C218.003 52.667 219.691 50.6705 220.39 49.5108L218.22 47.8919C217.497 49.0791 216.508 49.8615 215.085 49.8615C213.663 49.8615 212.65 49.1328 211.999 47.7035L220.51 43.7646L220.221 42.9554ZM152.413 40.6085V43.6298H158.875C158.682 45.3292 158.176 46.5701 157.404 47.4334C156.464 48.4859 154.993 49.6456 152.413 49.6456C148.435 49.6456 145.325 46.0578 145.325 41.6066C145.325 37.1555 148.435 33.5672 152.413 33.5672C154.559 33.5672 156.126 34.5116 157.284 35.7255L159.188 33.5946C157.573 31.8677 155.427 30.5459 152.413 30.5459C146.964 30.5459 142.383 35.5098 142.383 41.6066C142.383 47.7035 146.964 52.667 152.413 52.667C155.355 52.667 157.573 51.5884 159.309 49.5646C161.093 47.5682 161.648 44.7628 161.648 42.4969C161.648 41.795 161.6 41.1481 161.503 40.6085H152.413ZM168.994 49.8615C167.065 49.8615 165.401 48.0809 165.401 45.5451C165.401 42.9822 167.065 41.2287 168.994 41.2287C170.922 41.2287 172.586 42.9822 172.586 45.5451C172.586 48.081 170.922 49.8615 168.994 49.8615ZM168.994 38.4232C165.473 38.4232 162.604 41.4175 162.604 45.5451C162.604 49.6456 165.473 52.667 168.994 52.667C172.514 52.667 175.383 49.6456 175.383 45.5451C175.383 41.4175 172.514 38.4232 168.994 38.4232ZM182.932 49.8615C181.003 49.8615 179.34 48.0809 179.34 45.5451C179.34 42.9822 181.003 41.2287 182.932 41.2287C184.861 41.2287 186.524 42.9822 186.524 45.5451C186.524 48.081 184.861 49.8615 182.932 49.8615H182.932ZM182.932 38.4232C179.412 38.4232 176.543 41.4175 176.543 45.5451C176.543 49.6456 179.412 52.667 182.932 52.667C186.452 52.667 189.321 49.6456 189.321 45.5451C189.321 41.4175 186.452 38.4232 182.932 38.4232H182.932Z" fill="white"/>
<path d="M96.6878 14.7455C96.1855 15.2525 95.8857 16.0981 95.8857 17.2207V16.9669V54.0089V53.7649C95.8857 54.8015 96.1429 55.6021 96.5784 56.1177L96.6895 56.2368V56.2373C97.042 56.5932 97.494 56.7821 98.012 56.7815C98.5181 56.7815 99.0876 56.601 99.6886 56.2197L121.412 42.4096L128.874 37.6654C129.821 37.063 130.353 36.2859 130.442 35.4944V35.4911C130.353 34.6978 129.821 33.9213 128.874 33.3188L121.411 28.5752L99.6886 14.765C99.0864 14.3831 98.5165 14.2019 98.009 14.2019C97.4916 14.2019 97.0402 14.3903 96.6879 14.7455H96.6878Z" fill="#00C1FF"/>
<path d="M96.6896 56.2365L96.5784 56.1174C96.1429 55.6019 95.8857 54.8012 95.8857 53.7646V54.0086V16.9758V17.2204C95.8857 16.0978 96.1855 15.2522 96.6878 14.7452L115.23 35.4915L96.6896 56.2365Z" fill="url(#paint0_linear_12_3579)"/>
<path d="M121.412 42.4095L115.23 35.4918L121.412 28.5752L128.874 33.3188C129.822 33.9213 130.354 34.6977 130.443 35.4911V35.4943C130.354 36.2859 129.822 37.063 128.874 37.6653L121.412 42.4095" fill="url(#paint1_linear_12_3579)"/>
<path d="M98.0123 56.7811C97.4943 56.7817 97.0423 56.5926 96.6899 56.2368V56.2363L115.231 35.4913L121.412 42.409L99.6889 56.2193C99.0879 56.6006 98.5184 56.7811 98.0123 56.7811Z" fill="url(#paint2_linear_12_3579)"/>
<path d="M115.23 35.4921L96.688 14.7458C97.0405 14.3905 97.4918 14.2022 98.0092 14.2022C98.5167 14.2022 99.0866 14.3833 99.6888 14.7653L121.412 28.5755L115.23 35.4921" fill="url(#paint3_linear_12_3579)"/>
<path d="M98.0127 57.0272C97.4948 57.0272 97.0422 56.8382 96.6897 56.4824L96.6891 56.483C96.6876 56.4813 96.6861 56.4798 96.6844 56.4785L96.588 56.3731C96.585 56.3698 96.5822 56.3659 96.5786 56.3621L96.6898 56.2377C97.0422 56.5935 97.4942 56.7826 98.0122 56.7819C98.5183 56.7819 99.0878 56.6014 99.6888 56.2201L121.412 42.4099L121.551 42.5657L121.41 42.6553L99.6887 56.4647C99.141 56.8121 98.62 56.9932 98.1495 57.0234C98.1039 57.0259 98.0583 57.0271 98.0127 57.0271" fill="url(#paint4_linear_12_3579)"/>
<path d="M96.5784 56.3615C96.1429 55.8459 95.8857 55.046 95.8857 54.0086V53.7647C95.8857 54.8013 96.1429 55.6019 96.5784 56.1175L96.6895 56.2365L96.5784 56.3615Z" fill="url(#paint5_linear_12_3579)"/>
<path d="M121.551 42.5645L121.412 42.4087L128.873 37.6646C129.821 37.0623 130.353 36.2851 130.442 35.4936C130.442 35.784 130.384 36.0745 130.269 36.3571C130.037 36.9268 129.572 37.4651 128.873 37.9092L121.551 42.5646" fill="url(#paint6_linear_12_3579)"/>
<path d="M130.442 35.4916C130.353 34.6981 129.821 33.9217 128.874 33.3192L121.411 28.5757L121.55 28.4199H121.551L128.874 33.0752C129.918 33.7398 130.442 34.6156 130.442 35.4916Z" fill="url(#paint7_linear_12_3579)"/>
<path d="M95.8857 17.2203V16.9645C95.8857 16.8722 95.888 16.782 95.8922 16.6944V16.6904C95.8922 16.6892 95.8922 16.6879 95.8926 16.6865V16.6767C95.9377 15.7838 96.1855 15.0873 96.5784 14.6222L96.6878 14.7451C96.1855 15.2522 95.8857 16.0978 95.8857 17.2203Z" fill="url(#paint8_linear_12_3579)"/>
<path d="M121.411 28.5752L99.6888 14.7649C99.0866 14.383 98.5167 14.2018 98.0092 14.2018C97.4918 14.2018 97.0404 14.3902 96.688 14.7454L96.5786 14.6224C96.6128 14.582 96.6483 14.5429 96.6851 14.5054C96.6862 14.5041 96.688 14.5027 96.6892 14.5014C97.0388 14.1489 97.4854 13.9605 97.9981 13.9572H98.0092C98.5167 13.9572 99.0866 14.1384 99.6888 14.5205L121.551 28.4189L121.551 28.4194L121.411 28.5752Z" fill="url(#paint9_linear_12_3579)"/>
<defs>
<filter id="filter0_dddddd_12_3579" x="0.960938" y="0.703704" width="362.039" height="248.277" filterUnits="userSpaceOnUse" color-interpolation-filters="sRGB">
<feFlood flood-opacity="0" result="BackgroundImageFix"/>
<feColorMatrix in="SourceAlpha" type="matrix" values="0 0 0 0 0 0 0 0 0 0 0 0 0 0 0 0 0 0 127 0" result="hardAlpha"/>
<feOffset dy="1.85185"/>
<feGaussianBlur stdDeviation="1.57407"/>
<feColorMatrix type="matrix" values="0 0 0 0 0.219608 0 0 0 0 0.219608 0 0 0 0 0.219608 0 0 0 0.0240741 0"/>
<feBlend mode="normal" in2="BackgroundImageFix" result="effect1_dropShadow_12_3579"/>
<feColorMatrix in="SourceAlpha" type="matrix" values="0 0 0 0 0 0 0 0 0 0 0 0 0 0 0 0 0 0 127 0" result="hardAlpha"/>
<feOffset dy="8.14815"/>
<feGaussianBlur stdDeviation="3.25926"/>
<feColorMatrix type="matrix" values="0 0 0 0 0.219608 0 0 0 0 0.219608 0 0 0 0 0.219608 0 0 0 0.0392593 0"/>
<feBlend mode="normal" in2="effect1_dropShadow_12_3579" result="effect2_dropShadow_12_3579"/>
<feColorMatrix in="SourceAlpha" type="matrix" values="0 0 0 0 0 0 0 0 0 0 0 0 0 0 0 0 0 0 127 0" result="hardAlpha"/>
<feOffset dy="20"/>
<feGaussianBlur stdDeviation="6.5"/>
<feColorMatrix type="matrix" values="0 0 0 0 0.219608 0 0 0 0 0.219608 0 0 0 0 0.219608 0 0 0 0.05 0"/>
<feBlend mode="normal" in2="effect2_dropShadow_12_3579" result="effect3_dropShadow_12_3579"/>
<feColorMatrix in="SourceAlpha" type="matrix" values="0 0 0 0 0 0 0 0 0 0 0 0 0 0 0 0 0 0 127 0" result="hardAlpha"/>
<feOffset dy="38.5185"/>
<feGaussianBlur stdDeviation="12.7407"/>
<feColorMatrix type="matrix" values="0 0 0 0 0.219608 0 0 0 0 0.219608 0 0 0 0 0.219608 0 0 0 0.0607407 0"/>
<feBlend mode="normal" in2="effect3_dropShadow_12_3579" result="effect4_dropShadow_12_3579"/>
<feColorMatrix in="SourceAlpha" type="matrix" values="0 0 0 0 0 0 0 0 0 0 0 0 0 0 0 0 0 0 127 0" result="hardAlpha"/>
<feOffset dy="64.8148"/>
<feGaussianBlur stdDeviation="23.4259"/>
<feColorMatrix type="matrix" values="0 0 0 0 0.219608 0 0 0 0 0.219608 0 0 0 0 0.219608 0 0 0 0.0759259 0"/>
<feBlend mode="normal" in2="effect4_dropShadow_12_3579" result="effect5_dropShadow_12_3579"/>
<feColorMatrix in="SourceAlpha" type="matrix" values="0 0 0 0 0 0 0 0 0 0 0 0 0 0 0 0 0 0 127 0" result="hardAlpha"/>
<feOffset dy="100"/>
<feGaussianBlur stdDeviation="40"/>
<feColorMatrix type="matrix" values="0 0 0 0 0.219608 0 0 0 0 0.219608 0 0 0 0 0.219608 0 0 0 0.1 0"/>
<feBlend mode="normal" in2="effect5_dropShadow_12_3579" result="effect6_dropShadow_12_3579"/>
<feBlend mode="normal" in="SourceGraphic" in2="effect6_dropShadow_12_3579" result="shape"/>
</filter>
<linearGradient id="paint0_linear_12_3579" x1="107.735" y1="16.5844" x2="89.9909" y2="32.4947" gradientUnits="userSpaceOnUse">
<stop stop-color="#00A0FF"/>
<stop offset="0.00657" stop-color="#00A1FF"/>
<stop offset="0.2601" stop-color="#00BEFF"/>
<stop offset="0.5122" stop-color="#00D2FF"/>
<stop offset="0.7604" stop-color="#00DFFF"/>
<stop offset="1" stop-color="#00E3FF"/>
</linearGradient>
<linearGradient id="paint1_linear_12_3579" x1="131.597" y1="35.3723" x2="95.3842" y2="35.3723" gradientUnits="userSpaceOnUse">
<stop stop-color="#FFE000"/>
<stop offset="0.4087" stop-color="#FFBD00"/>
<stop offset="0.7754" stop-color="#FFA500"/>
<stop offset="1" stop-color="#FF9C00"/>
</linearGradient>
<linearGradient id="paint2_linear_12_3579" x1="118.13" y1="42.0684" x2="88.0851" y2="68.8112" gradientUnits="userSpaceOnUse">
<stop stop-color="#FF3A44"/>
<stop offset="1" stop-color="#C31162"/>
</linearGradient>
<linearGradient id="paint3_linear_12_3579" x1="91.9091" y1="11.67" x2="105.302" y2="23.609" gradientUnits="userSpaceOnUse">
<stop stop-color="#32A071"/>
<stop offset="0.0685" stop-color="#2DA771"/>
<stop offset="0.4762" stop-color="#15CF74"/>
<stop offset="0.8009" stop-color="#06E775"/>
<stop offset="1" stop-color="#00F076"/>
</linearGradient>
<linearGradient id="paint4_linear_12_3579" x1="118.117" y1="46.8678" x2="94.0355" y2="68.46" gradientUnits="userSpaceOnUse">
<stop stop-color="#CC2E36"/>
<stop offset="1" stop-color="#9C0E4E"/>
</linearGradient>
<linearGradient id="paint5_linear_12_3579" x1="98.3559" y1="16.5844" x2="82.7231" y2="30.6015" gradientUnits="userSpaceOnUse">
<stop stop-color="#008DE0"/>
<stop offset="0.00657" stop-color="#008DE0"/>
<stop offset="0.2601" stop-color="#00A7E0"/>
<stop offset="0.5122" stop-color="#00B8E0"/>
<stop offset="0.7604" stop-color="#00C4E0"/>
<stop offset="1" stop-color="#00C7E0"/>
</linearGradient>
<linearGradient id="paint6_linear_12_3579" x1="131.597" y1="35.492" x2="95.3837" y2="35.492" gradientUnits="userSpaceOnUse">
<stop stop-color="#E0C500"/>
<stop offset="0.4087" stop-color="#E0A600"/>
<stop offset="0.7754" stop-color="#E09100"/>
<stop offset="1" stop-color="#E08900"/>
</linearGradient>
<linearGradient id="paint7_linear_12_3579" x1="131.597" y1="35.4932" x2="95.3839" y2="35.4932" gradientUnits="userSpaceOnUse">
<stop stop-color="#FFE840"/>
<stop offset="0.4087" stop-color="#FFCE40"/>
<stop offset="0.7754" stop-color="#FFBC40"/>
<stop offset="1" stop-color="#FFB540"/>
</linearGradient>
<linearGradient id="paint8_linear_12_3579" x1="98.3406" y1="16.6128" x2="83.3567" y2="29.4659" gradientUnits="userSpaceOnUse">
<stop stop-color="#40B8FF"/>
<stop offset="0.00657" stop-color="#40B9FF"/>
<stop offset="0.2601" stop-color="#40CEFF"/>
<stop offset="0.5122" stop-color="#40DDFF"/>
<stop offset="0.7604" stop-color="#40E7FF"/>
<stop offset="1" stop-color="#40EAFF"/>
</linearGradient>
<linearGradient id="paint9_linear_12_3579" x1="91.882" y1="16.0571" x2="102.635" y2="25.699" gradientUnits="userSpaceOnUse">
<stop stop-color="#65B895"/>
<stop offset="0.0685" stop-color="#62BD95"/>
<stop offset="0.4762" stop-color="#50DB97"/>
<stop offset="0.8009" stop-color="#44ED98"/>
<stop offset="1" stop-color="#40F498"/>
</linearGradient>
</defs>
</svg>
